# xmcd
#
# Track frame offsets:
#	150
#	22895
#	48160
#	70252
#	90482
#	111517
#	134737
#	140667
#	161900
#	182322
#	204202
#	228322
#	248462
#
# Disc length: 3633 seconds
#
# Revision: 0
# Processed by: cddbd v1.4PL0 Copyright (c) Steve Scherf et al.
# Submitted via: EasyCDDAExtractor 4.6.9.1
#
DISCID=aa0e2f0d
DTITLE=Spearhead - Home
DYEAR=1994
DGENRE=Funk
TTITLE0=People In Tha Middle
TTITLE1=Love Is Da Shit
TTITLE2=Piece O' Peace
TTITLE3=Positive
TTITLE4=Of Course You Can
TTITLE5=Hole In The Bucket
TTITLE6=Home
TTITLE7=Dream Team
TTITLE8=Runfayalife
TTITLE9=Crime To Be Broke In America
TTITLE10=100,000 Miles
TTITLE11=Red Beans and Rice
TTITLE12=Caught Without An Umbrella
EXTD=
EXTT0=
EXTT1=
EXTT2=
EXTT3=
EXTT4=
EXTT5=
EXTT6=
EXTT7=
EXTT8=
EXTT9=
EXTT10=
EXTT11=
EXTT12=
PLAYORDER=
